<svg width="640" height="640" version="1.1" viewBox="0 0 169.33 169.33" xmlns="http://www.w3.org/2000/svg" xmlns:xlink="http://www.w3.org/1999/xlink">
 <title>Depolarisation curves</title>
 <defs>
  <linearGradient id="a" x1="40" x2="1618.5" y1="479.75" y2="479.75" gradientTransform="matrix(.1079 0 0 .1781 -5.3259 .069314)" gradientUnits="userSpaceOnUse">
   <stop stop-color="#fff" offset="0"/>
   <stop stop-color="#c3dde9" offset="1"/>
  </linearGradient>
 </defs>
 <rect x=".069314" y=".069314" width="169.19" height="169.19" fill="url(#a)" stroke="#ced4da" stroke-width=".13863"/>
 <g fill="none" stroke-width=".52917">
  <path d="m0 0 0.065677 67.088 1.0804 51.123 1.0804 17.041 1.0804 8.4308 1.0804 5.202 1.2605 3.4082 1.0804 2.3319 1.0804 1.9732 1.0804 1.435 1.0804 1.0763 1.0804 0.8969 2.1609 1.435 1.0804 0.53814 1.2605 0.53813 1.0804 0.35876 1.0804 0.53814 1.0804 0.17938 1.0804 0.35875 1.0804 0.35876 5.4022 0.89689 1.2605 0.17939 1.0804 0.17937 2.1609 0.35876h1.0804l2.1609 0.35875h1.0804l1.0804 0.17939h1.0804l1.2605 0.17937h1.0804l1.0804 0.17938h2.1609l1.0804 0.17938h2.1609l1.0804 0.17938h2.3409l1.0804 0.17937h2.1609l1.0804 0.17939h4.3217l1.0804 0.17937h3.4214l1.0804 0.17938h5.4022l1.0804 0.17938h5.5822l1.0804 0.17938h7.7431l1.0804 0.17938h8.8235l1.0804 0.17938h10.984l1.0804 0.17937h13.145l1.0804 0.17938h17.647l1.0804 0.17938h21.969l1.0804 0.17938h5.5822" stroke="#f00"/>
  <path d="m0.80166 1.3559e-5 0.34447 40.719 1.0804 42.513 1.0804 21.346 1.0804 12.736 1.2605 8.6102 1.0804 6.0989 1.0804 4.4845 1.0804 3.5876 1.0804 2.87 1.0804 2.3319 1.0804 1.9732 1.0804 1.6144 1.0804 1.435 2.3409 2.3319 2.1609 1.7938 2.1609 1.435 2.1609 1.0763 2.1609 1.0763 1.0804 0.35876 1.2605 0.35876 1.0804 0.35875 4.3217 1.435 1.0804 0.17937 1.0804 0.17938 1.0804 0.35876 1.0804 0.17937 1.2605 0.17939 1.0804 0.17937 1.0804 0.17938 1.0804 0.35876 1.0804 0.17937h1.0804l4.3217 0.71752 1.2605 0.17938h1.0804l2.1609 0.35876h1.0804l1.0804 0.17937 1.0804 0.17938h1.0804l1.0804 0.17938h1.0804l1.2605 0.17938h1.0804l1.0804 0.17938h1.0804l1.0804 0.17938h1.0804l1.0804 0.17938h1.0804l1.0804 0.17937h2.3409l1.0804 0.17939h1.0804l1.0804 0.17937h2.1609l1.0804 0.17938h2.1609l1.0804 0.17938h2.3409l1.0804 0.17938h3.2413l1.0804 0.17937h2.1609l1.0804 0.17939h3.4214l1.0804 0.17937h4.3217l1.0804 0.17938h3.4214l1.0804 0.17938h4.3217l1.0804 0.17938h4.5018l1.0804 0.17937h5.4022l1.0804 0.17939h5.5822l1.0804 0.17937h6.6627l1.0804 0.17938h7.563l1.0804 0.17938h7.7431l1.0804 0.17938h8.8235l1.0804 0.17938h3.4214" stroke="#00f"/>
  <path d="m2.3128 1.3559e-5 0.99418 39.284 1.0804 25.472 1.2605 17.041 1.0804 12.198 1.0804 9.1483 1.0804 7.1751 1.0804 5.7401 1.0804 4.6638 1.0804 3.7669 1.0804 3.4082 1.0804 2.6907 1.2605 2.5113 1.0804 2.1526 1.0804 1.9732 2.1609 3.2288 2.1609 2.5113 2.1609 2.1525 2.1609 1.7938 1.2605 0.8969 1.0804 0.71751 2.1609 1.435 2.1609 1.0763 3.2413 1.6144 1.0804 0.35876 1.2605 0.53813 6.4826 2.1526 1.0804 0.17937 2.1609 0.71751 1.2605 0.17939 1.0804 0.35875 2.1609 0.35876 1.0804 0.35876 1.0804 0.17937 3.2413 0.53814 1.0804 0.35876 1.2605 0.17937 5.4022 0.8969h1.0804l2.1609 0.35875 1.0804 0.17939 1.2605 0.17937 1.0804 0.17938h1.0804l3.2413 0.53813h1.0804l2.1609 0.35876h1.0804l1.2605 0.17938h1.0804l2.1609 0.35876h1.0804l1.0804 0.17937h1.0804l2.1609 0.35876h1.0804l1.2605 0.17938h1.0804l1.0804 0.17938h1.0804l1.0804 0.17938h1.0804l1.0804 0.17938h2.1609l1.0804 0.17938h1.2605l1.0804 0.17937h1.0804l1.0804 0.17938h2.1609l1.0804 0.17938h1.0804l1.0804 0.17938h2.3409l1.0804 0.17938h2.1609l1.0804 0.17938h1.0804l1.0804 0.17938h2.1609l1.0804 0.17937h3.4214l1.0804 0.17939h2.1609l1.0804 0.17937h2.1609l1.0804 0.17938h3.4214l1.0804 0.17938h3.2413l1.0804 0.17938h3.4214l1.0804 0.17937h3.2413l1.0804 0.17939h3.2413l1.0804 0.17937h4.5018l1.0804 0.17938h4.3217l1.0804 0.17938h0.18007" stroke="#0ff"/>
  <path d="m5.8443 1.3559e-5 0.16381 5.5607 2.3409 39.643 2.521 23.857 2.3409 15.965 2.3409 11.48 2.3409 8.6102 2.3409 6.637 2.3409 5.3814 2.3409 4.4845 2.3409 3.767 2.3409 3.0494 2.3409 2.6907 2.3409 2.3319 2.521 2.1525 4.6819 3.5876 4.6819 2.87 2.3409 1.2557 4.6819 2.1525 4.6819 1.7938 2.521 0.8969 9.3637 2.87 2.3409 0.53814 2.3409 0.71751 7.0228 1.6144 2.521 0.35876 2.3409 0.53813 2.3409 0.35876 2.3409 0.53814 14.046 2.1525 2.521 0.35875 4.6819 0.71752 2.3409 0.17937 2.3409 0.35876 2.3409 0.17938 2.3409 0.35876 2.3409 0.17938 2.3409 0.35876 2.521 0.17937 2.3409 0.17938 2.3409 0.35876 2.3409 0.17937 7.0228 0.53814 2.3409 0.35876 2.3409 0.17937 2.3409 0.17939 2.521 0.17937 9.3637 0.71752h2.3409l4.6819 0.35875 0.54021 0.0414" stroke="#008080"/>
  <path d="m9.4465 2.7119e-5 0.52315 8.2514 1.0804 13.992 1.0804 11.66 1.0804 9.8658 1.0804 8.4308 1.2605 7.3545 1.0804 6.4576 1.0804 5.7401 1.0804 5.0226 1.0804 4.6638 1.0804 4.1257 1.0804 3.5876 1.0804 3.4082 1.0804 3.0494 1.0804 2.8701 1.0804 2.6907 1.2605 2.3319 1.0804 2.3319 1.0804 2.1525 1.0804 1.9732 1.0804 1.7938 1.0804 1.6144 2.1609 3.2288 1.0804 1.435 1.0804 1.2556 1.2605 1.435 1.0804 1.0763 1.0804 1.2556 3.2413 3.2288 2.1609 1.7938 2.1609 1.7938 1.2605 0.71751 1.0804 0.8969 2.1609 1.435 2.1609 1.435 1.0804 0.53814 1.0804 0.71751 1.0804 0.53813 1.0804 0.71752 1.2605 0.53814 1.0804 0.53813 4.3217 2.1526 1.0804 0.35875 1.0804 0.53813 1.0804 0.35876 1.0804 0.53814 1.2605 0.35876 1.0804 0.53813 3.2413 1.0763 1.0804 0.53814 1.0804 0.35875 3.2413 1.0763 1.2605 0.35876 1.0804 0.17938 4.3217 1.435 1.0804 0.17937 2.1609 0.71752 1.0804 0.17938 1.2605 0.35876 1.0804 0.17938 1.0804 0.35875 1.0804 0.17938 1.0804 0.35876 1.0804 0.17938 1.0804 0.35876 1.0804 0.17937 1.0804 0.17938 1.0804 0.35876 1.2605 0.17937 1.0804 0.17939 1.0804 0.35875 3.2413 0.53813 1.0804 0.17939 1.0804 0.35875 2.1609 0.35876 1.2605 0.17938 5.4022 0.89689 1.0804 0.35876 2.1609 0.35875 1.0804 0.17939h1.2605l1.0804 0.17937 4.3217 0.71751 4.3217 0.71752 1.2605 0.17938h1.0804l1.0804 0.17937 3.2413 0.53814h1.0804l3.2413 0.53814h1.2605l3.2413 0.53813h1.0804l2.1609 0.35876h1.0804l2.1609 0.35876h1.2605l2.1609 0.35875h1.0804l2.1609 0.35876h1.0804l1.0804 0.17938h1.0804l1.0804 0.17938h0.18007" stroke="#ff0"/>
  <path d="m18.885 0 0.98848 7.7133 1.0804 7.3545 1.0804 6.8164 1.0804 6.2782 1.0804 5.7401 1.0804 5.202 1.0804 4.8432 1.2605 4.3051 1.0804 4.1257 1.0804 3.9463 1.0804 3.5876 1.0804 3.4082 1.0804 3.0494 1.0804 3.0494 2.1609 5.3814 1.0804 2.5113 1.2605 2.3319 1.0804 2.3319 1.0804 1.9732 1.0804 2.1525 1.0804 1.9732 1.0804 1.7938 1.0804 1.7938 3.2413 4.8432 1.2605 1.435 3.2413 4.3051 2.1609 2.5113 1.0804 1.0763 1.0804 1.2556 2.1609 2.1526 1.2605 1.0763 1.0804 1.0763 1.0804 0.89689 1.0804 1.0763 3.2413 2.6907 1.0804 0.8969 1.0804 0.71751 1.0804 0.89689 1.2605 0.71752 1.0804 0.89689 2.1609 1.435 3.2413 2.1526 1.0804 0.53813 2.1609 1.435 1.2605 0.53814 1.0804 0.71751 1.0804 0.53813 1.0804 0.53814 1.0804 0.71752 1.0804 0.53813 4.3217 2.1526 1.2605 0.53813 1.0804 0.53814 1.0804 0.35875 2.1609 1.0763 1.0804 0.35876 1.0804 0.53814 1.0804 0.35876 1.0804 0.53813 1.0804 0.35875 1.2605 0.53814 1.0804 0.35876 1.0804 0.53813 3.2413 1.0763 1.0804 0.53814 3.2413 1.0763 1.2605 0.35876 1.0804 0.35875 6.4826 2.1526 1.0804 0.17938 1.0804 0.35875 1.2605 0.35876 2.1609 0.71751 1.0804 0.17938 2.1609 0.71752 1.0804 0.17937 1.0804 0.35876 1.0804 0.17938 1.0804 0.35876 1.2605 0.35876 1.0804 0.17937 1.0804 0.35876 1.0804 0.17938 1.0804 0.35876 1.0804 0.17937 1.0804 0.35876 2.1609 0.35876 1.0804 0.35876 1.2605 0.17937 1.0804 0.17938 1.0804 0.35876 2.1609 0.35876 1.0804 0.35876 1.0804 0.17937 2.1609 0.35876 1.0804 0.35875 1.2605 0.17939 1.0804 0.17937 3.2413 0.53814 1.0804 0.35876 1.0804 0.17937 3.2413 0.53814 0.18006 0.0256" stroke="#008000"/>
  <path d="m20.813 6.7797e-6 0.14093 1.0763 1.0804 7.3545 1.0804 6.8164 1.0804 6.2782 1.0804 5.5607 1.0804 5.3814 1.2605 4.8432 1.0804 4.4845 1.0804 4.1257 1.0804 3.9463 1.0804 3.7669 1.0804 3.4082 1.0804 3.2288 1.0804 3.0494 1.0804 2.8701 1.0804 2.6907 1.2605 2.5113 1.0804 2.5113 1.0804 2.3319 2.1609 4.3051 2.1609 3.9463 3.2413 5.3814 1.2605 1.6144 1.0804 1.6144 4.3217 5.7401 1.0804 1.2556 2.1609 2.5113 4.5018 4.4845 2.1609 2.1526 1.0804 0.89689 1.0804 0.8969 1.0804 1.0763 2.1609 1.7938 1.2605 0.89689 1.0804 0.71752 1.0804 0.89689 1.0804 0.71751 1.0804 0.8969 2.1609 1.435 3.2413 2.1525 1.2605 0.71752 1.0804 0.71751 1.0804 0.71752 1.0804 0.53813 1.0804 0.71752 1.0804 0.53814 1.0804 0.71751 1.0804 0.53813 2.1609 1.0763 1.2605 0.53814 1.0804 0.71751 2.1609 1.0763 1.0804 0.35876 4.3217 2.1525 1.0804 0.35876 1.2605 0.53814 1.0804 0.53813 1.0804 0.35876 1.0804 0.53813 1.0804 0.35876 1.0804 0.53814 2.1609 0.71751 1.0804 0.53813 1.0804 0.35876 1.2605 0.35876 1.0804 0.35876 1.0804 0.53813 7.563 2.5113 1.2605 0.35876 1.0804 0.35875 3.2413 1.0763 1.0804 0.17938 1.0804 0.35875 2.1609 0.71752 1.0804 0.17938 1.2605 0.35875 1.0804 0.35876 1.0804 0.17938 1.0804 0.35875 1.0804 0.35876 1.0804 0.17938 1.0804 0.35876 1.0804 0.17937 1.0804 0.35876 1.0804 0.17938 1.2605 0.35876 1.0804 0.17937 1.0804 0.35876 1.0804 0.17938 1.0804 0.35876 2.1609 0.35876 1.0804 0.35875 2.1609 0.35876 1.2605 0.35876 2.1609 0.35875 1.0804 0.35876 4.3217 0.71751 1.0804 0.35876 1.0804 0.17938 0.18006 0.0256" stroke="#808000"/>
  <path d="m45.401 6.1017e-5 0.76333 2.6906 2.3409 7.3545 2.3409 6.8164 2.3409 6.4576 2.3409 5.7401 2.3409 5.3814 2.521 5.0226 2.3409 4.8432 2.3409 4.4845 2.3409 4.1257 2.3409 3.9463 2.3409 3.7669 4.6819 6.8164 2.3409 3.2288 2.3409 3.0494 2.521 2.8701 2.3409 2.8701 2.3409 2.5113 2.3409 2.6907 7.0228 6.9958 4.6819 4.3051 2.3409 1.9732 2.521 1.9732 2.3409 1.9732 4.6819 3.5876 2.3409 1.6144 2.3409 1.7938 2.3409 1.6144 2.3409 1.435 2.3409 1.6144 2.521 1.435 4.6819 2.8701 4.6819 2.5113 2.3409 1.435 2.3409 1.0763 4.6819 2.5113 2.3409 1.0763 2.521 1.0763 7.0228 3.2288 4.6819 1.7938 2.3409 1.0763 2.3409 0.89689 0.54024 0.20699" stroke="#ff8080"/>
 </g>
</svg>
