<svg version="1.1" viewBox="0 0 640 400" xmlns="http://www.w3.org/2000/svg">
 <g>
  <path d="m55.769 35.369c-5.3238 0.69928-10.475 0.98962-15.652 2.6772-17.142 5.5878-30.37 18.743-36.719 35.516-3.7112 9.8041-3.2804 20.224-3.2804 30.513v187.98c0 8.3381-0.53766 16.874 0.67973 25.138 2.2842 15.506 11.566 29.406 24.3 38.304 8.4042 5.8734 18.289 9.0796 28.458 10.047 2.9519 0.28157 6.0459 0.0265 9.0117 0.0265h511.77c6.7303 0 13.464 0.29103 20.079-1.2094 20.773-4.7145 39.019-21.076 43.727-42.268 2.1786-9.8101 1.6474-19.728 1.6474-29.723v-179.44c0-9.3465 0.72889-19.033-0.5201-28.3-2.2229-16.51-12.395-32.105-26.673-40.719-5.9477-3.5885-12.588-6.3179-19.446-7.5628-12.11-2.1982-25.038-1.0457-37.311-1.0457h-485.52c-4.736 0-9.8518-0.54937-14.545 0.06709" fill="#d10e1a"/>
  <path d="m55.137 44.241c5.0567-0.41588 10.262-0.08542 15.336-0.08542h504.34c10.308 0 20.592 0.31669 29.881 5.4442 4.0822 2.2532 8.0552 4.8647 11.383 8.153 6.4995 6.4222 11.261 14.35 13.486 23.24 1.5067 6.0261 1.3755 12.023 1.3755 18.181v191.3c0 6.9564 0.60548 14.219-0.0378 21.139-1.932 20.825-16.79 39.602-37.749 43.952-6.7999 1.4118-13.647 1.1526-20.553 1.1526h-492c-17.215 0-35.357 2.0885-50.276-8.335-3.5576-2.4853-6.8014-5.3121-9.6441-8.5958-5.1834-5.9872-9.0099-13.565-10.669-21.329-1.1865-5.5524-1.0304-11.263-1.0304-16.917v-193.83c0-8.7936-0.61479-17.841 1.346-26.47 4.7912-21.085 23.903-35.281 44.819-37.001" fill="#fff"/>
  <path d="m56.56 58.451c-4.0217 0.52805-7.8022 0.68678-11.699 2.0738-11.428 4.0673-19.937 14.394-21.925 26.317-1.1389 6.8334-0.36743 14.272-0.36743 21.185v187.98c0 5.671-0.49817 11.617 0.38561 17.233 1.4259 9.0607 6.6622 17.604 14.318 22.711 3.6679 2.4458 7.9772 4.4363 12.332 5.2584 4.5488 0.85689 9.304 0.48854 13.913 0.48854h510.98c5.1208 0 10.656 0.56916 15.652-0.75258 3.5399-0.93592 7.0433-2.2592 10.118-4.2798 2.566-1.6869 5.0339-3.5572 7.0686-5.8766 4.3177-4.9216 7.2014-10.782 8.3524-17.233 0.63712-3.5778 0.38892-7.2884 0.38892-10.909v-199.21c0-5.4127 0.52648-11.16-0.38892-16.509-1.7502-10.207-8.2006-19.61-17.476-24.397-8.0219-4.1409-16.333-4.1515-25.138-4.1515h-502.44c-4.5825 0-9.5294-0.52916-14.071 0.06705" fill="#d10e1a"/>
  <g fill="#fff">
   <path d="m613.86 252.53v40.79c0 6.5327 0.63553 13.453-0.38578 19.921-1.0276 6.5153-4.3034 12.596-8.9421 17.233-2.022 2.0221-4.3288 3.7707-6.7983 5.2157-6.7414 3.9446-13.974 3.9541-21.502 3.9541h-513.19c-7.904 0-15.006-0.0869-22.134-4.0015-8.151-4.4774-14.425-13.125-15.763-22.401-0.86433-5.9951-0.36363-12.292-0.36363-18.34v-42.371h589.08"/>
   <path d="m580.6 207.37c-0.24264-6e-4 -0.4848 5e-3 -0.72627 0.0189-11.435 0.62766-18.082 14.316-10.387 23.321 1.396 1.6347 3.0717 2.8551 5.0116 3.7752 2.4079 1.1415 5.1208 1.295 7.7469 1.1116 1.9589-0.13754 4.0648-0.97076 5.6916-2.0411 9.6125-6.3256 8.199-20.76-2.3715-25.182-1.559-0.65295-3.2681-0.99835-4.9653-1.0036zm-0.26797 4.3987c0.9072-5e-3 1.8649 0.19967 2.7038 0.44373 8.9389 2.5944 8.8994 17.714-0.94862 18.944-1.5462 0.19287-3.2521 0.23236-4.743-0.30198-6.4979-2.3304-8.455-11.031-3.8558-16.085 1.6458-1.8071 3.8512-2.6656 6.2258-2.9613 0.20182-0.0257 0.40853-0.0378 0.61787-0.0389zm-4.0031 2.4663c-0.034 1.3e-4 -0.0673 4.3e-4 -0.10091 1e-3 -0.32278 5e-3 -0.63799 0.0283-0.92792 0.0917-0.99284 0.21978-0.6435 2.0365-0.6435 2.7859v8.5374c0 0.6245-0.30954 2.7399 0.38907 3.0672 0.33978 0.15968 0.82673 0.0678 1.192 0.0757 0.46321 0.011 1.2506 0.16755 1.6443-0.14388 0.3984-0.31461 0.25285-1.1334 0.25285-1.5761v-4.1106c2.6624 9e-3 2.5028 4.071 4.2134 5.5745 0.73043 0.64031 2.4663 0.22768 3.3754 0.27515 0.3651-1.8988-1.9352-4.4489-2.8458-6.0078 3.2031-0.14702 5.336-4.5202 2.9424-7.0404-1.7312-1.8213-5.7044-1.5128-8.0016-1.497-0.46408 4e-3 -0.98347-0.0344-1.4896-0.0329zm3.8981 2.6645c0.74286 0.0102 1.4705 0.0961 2.001 0.4005 0.98177 0.56126 0.95489 2.1864-0.0113 2.7445-1.0261 0.59287-2.9265 0.23097-4.0806 0.23097v-3.3201c0.59131 0 1.3495-0.0659 2.0924-0.0559z"/>
   <path d="m469.45 118.04c-5.0965 0.011-10.198 0.1087-15.271 0.1087h-11.067c-0.87745 0-3.3104-0.37955-3.9618 0.28161-0.38574 0.39066-0.38755 1.2633-0.4777 1.7737-0.2434 1.3744-0.54383 2.7473-0.84419 4.1106-1.2348 5.588-2.5817 11.261-3.4544 16.917-0.63085 4.082-1.7294 8.1288-2.5642 12.174-1.9415 9.4205-3.7122 18.889-5.7185 28.3-0.9312 4.3673-1.8531 8.7347-2.68 13.122-0.3651 1.9351-1.0831 3.8734-1.1685 5.8497h24.98c0.86321-6.6781 2.7163-13.318 4.0396-19.921 0.3905-1.9514 0.82533-3.8967 1.2095-5.8497 0.144-0.73626 0.12322-1.8638 0.59135-2.4793 0.70035-0.92092 4.1388-0.36654 5.2265-0.36654 4.996 0 11.807-0.7342 14.597 4.4268 0.95021 1.7585 0.57577 3.9546 0.43665 5.8497-0.29707 4.0443-0.96492 7.9469-0.96314 12.016 0 1.4672-0.25588 5.1428 1.0641 6.1609 0.41896 0.3241 1.2853 0.16305 1.7817 0.16305h22.292c-0.18482-2.1106-1.0324-4.1754-1.238-6.324-0.26873-2.8324-0.0601-5.846-0.0265-8.6955 0.0695-5.8655 1.1178-12.826-1.9509-18.181-0.79208-1.3842-1.9241-2.6028-3.2664-3.464-0.80946-0.5192-1.8418-0.76914-2.5296-1.4371 3.1778-0.13864 6.4631-1.7663 9.0116-3.5693 7.652-5.4144 10.34-14.105 9.2158-23.15-0.55333-4.4488-2.0681-8.698-5.4214-11.843-4.4126-4.1375-10.825-5.1663-16.6-5.5619-5.0536-0.34617-10.145-0.4217-15.242-0.4107zm1.5708 19.899c4.1921-3e-3 8.5894 0.60915 10.119 4.5568 0.44111 1.1361 0.54376 2.4388 0.41254 3.6369-0.98653 9.0132-12.31 8.0624-18.836 8.0624-1.8988 0-4.1691 0.33725-6.0078-0.1581 0.95335-3.6862 1.6253-7.4901 2.3715-11.225 0.22601-1.1296 0.2657-3.6252 1.0848-4.4675 0.37795-0.38956 1.1128-0.27526 1.6029-0.27545h3.9525c1.5321 0 3.3955-0.12862 5.301-0.12998z"/>
   <path d="m339.72 118.3c-0.0318 1.5516-0.5328 3.0655-0.80315 4.5849-0.63556 3.5874-1.2964 7.1769-2.011 10.751-0.34625 1.735-0.31144 4.4984-1.2743 5.9937-1.034 1.6068-3.3011 3.0186-4.7651 4.2439-3.0877 2.583-6.0868 5.2679-9.1698 7.855-6.5564 5.5039-12.996 11.175-19.446 16.802-4.0726 3.5522-8.4726 6.8582-12.332 10.638h29.248l9.3279 0.15809-1.1383 5.8497-3.1304 15.494h-72.568l2.7588-13.913 1.3518-7.4307 6.4821-5.6464 12.332-10.927 26.086-23.109h-34.149l2.9122-14.229 1.3565-7.1145 14.703-0.1581h44.9l9.3279 0.1581"/>
   <path d="m244.22 200.67h-25.454c3.7659-19.421 7.7121-38.86 11.949-58.181 1.1715-5.3444 2.275-10.747 3.29-16.126 0.42686-2.2632 0.5407-5.6807 1.63-7.7028 0.56283-1.0438 4.3477-0.5184 5.4228-0.5184h14.861c0.94227 0 4.2892-0.51114 4.8948 0.27541 0.29091 0.37991 5e-3 1.0561-0.0854 1.4637-0.27511 1.2607-0.46955 2.5354-0.75413 3.7944-1.1114 4.9223-2.1344 9.904-3.0656 14.861-2.7399 14.581-5.9319 29.096-8.8947 43.635-1.2474 6.1192-2.9944 12.308-3.7944 18.498"/>
   <path d="m154.18 118.06c-0.76106 5e-3 -1.4849 0.10432-1.7616 0.48201-0.42782 0.58386-0.46442 1.5984-0.58947 2.2903-0.28694 1.587-0.66228 3.1554-0.94859 4.743-0.92441 5.1235-2.0454 10.243-3.1283 15.336-2.774 13.046-5.3819 26.137-8.0303 39.209-0.83192 4.1065-1.6181 8.2434-2.5108 12.332-0.58242 2.6671-1.4816 5.4892-1.5992 8.2212h24.822c1.3707-6.6418 2.857-13.261 4.1424-19.921 0.3668-1.9029 0.8362-3.7868 1.1919-5.6916 0.14702-0.78465 0.16301-1.9835 0.6642-2.6374 0.70355-0.92109 4.1357-0.36654 5.2266-0.36654 4.6876 0 11.938-0.77832 14.485 4.2687 1.0703 2.1201 0.67021 4.6974 0.40143 6.9564-0.43161 3.6043-0.79682 7.1388-0.90907 10.751-0.0458 1.4482-0.2293 5.5285 1.1224 6.4771 0.45058 0.31778 1.2949 0.16305 1.8166 0.16305h22.292c-0.14702-1.4672-0.77453-2.9517-1.0338-4.4268-0.37621-2.147-0.42532-4.6228-0.38104-6.7983 0.14703-7.1127 1.7123-15.808-2.0442-22.292-0.72726-1.2582-1.7756-2.415-3.023-3.1737-0.8237-0.50101-1.845-0.72548-2.5296-1.4112 7.0734-0.89863 13.87-6.0321 16.586-12.648 1.4245-3.4726 1.7533-7.044 1.7533-10.751 0-5.9633-1.6348-11.527-6.1659-15.635-4.1327-3.747-10.455-4.7812-15.808-5.0882-10.292-0.59018-20.67-0.30353-30.989-0.30353h-11.067c-0.42553 0-1.2235-0.0895-1.9846-0.0846zm21.012 19.828c1.2292-0.0355 2.7336 0.17662 3.4223 0.17662 4.637 0 11.653-1.174 14.967 2.8458 2.3889 2.8965 1.4672 7.8838-1.2126 10.247-2.0332 1.7922-4.6323 2.5664-7.2726 2.8486-4.9833 0.53248-10.035-0.1864-15.019 0.18433 0.16758-3.8388 1.6365-7.9271 2.4033-11.699 0.21343-1.0499 0.25286-3.4084 1.0323-4.1733 0.30353-0.2984 0.94198-0.40891 1.6795-0.43014z"/>
   <path d="m95.519 117.98c-4.4925-0.0166-8.9651 0.16672-13.19 0.16672h-13.122c-1.0022 0-3.8786-0.47506-4.6071 0.27545-0.3875 0.3992-0.3835 1.2599-0.48326 1.7798-0.27318 1.4258-0.53771 2.8529-0.86213 4.2687-1.2814 5.5912-2.3905 11.274-3.4479 16.917-2.4545 13.1-5.3152 26.176-8.0949 39.209-1.4164 6.6405-3.1773 13.364-4.1643 20.079h26.403c6.9738 0 14.092 0.40949 21.027-0.34307 11.264-1.2253 22.207-6.6022 29.23-15.625 2.2523-2.8934 4.1955-5.9448 5.6434-9.3279 2.3783-5.5569 3.6458-11.253 4.3802-17.233 0.89153-7.2599 0.47162-15.616-2.7735-22.292-1.3141-2.7032-2.9233-5.171-4.9054-7.4307-7.9408-9.0524-19.552-10.401-31.033-10.443zm-9.112 21.647c0.29246-0.014 0.60038 0.0215 0.82354 0.0215h3.9525c5.5597 0 12.465-0.23037 15.755 5.2173 1.4942 2.4743 1.8804 5.238 2.1368 8.0624 0.79271 8.7329-2.8621 19.642-10.777 24.144-4.49 2.5539-9.4194 2.1007-14.387 2.1007-2.0651 0-4.4649 0.34133-6.4821 0 2.5671-9.1312 4.0548-18.831 5.8809-28.142 0.51809-2.6414 1.1177-5.2647 1.6449-7.905 0.17295-0.86544 0.15972-2.5298 0.72318-3.2247 0.1604-0.19779 0.43722-0.26121 0.72966-0.27511z"/>
   <path d="m554.57 116.36c-3.1688 0.0283-6.4374 0.57324-9.4863 1.3543-21.108 5.4076-33.546 25.772-33.993 46.755-0.24189 11.31 2.1912 23.646 11.859 30.868 2.8063 2.0964 5.8718 3.7372 9.1697 4.9119 4.5011 1.6015 9.3121 2.3052 14.071 2.3684 6.1232 0.0822 12.074-0.53445 17.865-2.6451 18.751-6.834 28.705-25.785 29.656-44.83 0.62295-12.486-2.5201-26.318-13.846-33.348-7.4734-4.6391-16.125-5.3182-24.664-5.4319-0.21014-3e-3 -0.42081-3e-3 -0.63208-2e-3zm1.782 20.836c1.1535 4e-3 2.3132 0.10998 3.435 0.38011 7.1303 1.7176 8.5374 8.9046 8.5374 15.194 0 11.597-4.8252 28.695-18.972 29.018-1.562 0.0355-3.2332-0.0971-4.743-0.52031-6.8394-1.9177-8.2212-9.0833-8.2212-15.218 0-11.643 4.9959-28.125 18.814-28.826 0.38143-0.0193 0.76543-0.0295 1.15-0.0283z"/>
   <path d="m384.04 116.21c-0.55552-2e-3 -1.1037 0.0238-1.6369 0.0868-4.6955 0.55398-9.2093 0.97231-13.755 2.4441-9.2962 3.0104-17.195 9.9163-22.379 18.078-1.8877 2.9715-3.3627 6.1981-4.626 9.4721-6.2829 16.272-5.4641 39.665 10.246 50.34 8.3303 5.66 19.674 6.8662 29.473 5.7342 16.128-1.864 29.577-13.242 35.593-28.091 2.4474-6.0446 3.5666-12.662 4.0093-19.13 0.60711-8.8744-1.075-19.122-6.4299-26.403-5.9762-8.1265-15.772-11.521-25.492-12.188-1.6032-0.11002-3.3368-0.34121-5.0033-0.34367zm-0.23547 20.892c7.5981 0.0121 11.721 6.8065 11.721 14.09 0 11.344-3.5367 29.13-17.549 30.486-1.5889 0.15382-3.3312 0.17533-4.9011-0.13157-7.9224-1.5492-9.8984-9.3865-9.4795-16.442 0.54386-9.1644 3.0717-21.67 12.167-26.226 2.0632-1.0328 4.2103-1.4282 6.4759-1.6869 0.53725-0.0613 1.0593-0.0907 1.5658-0.0899z"/>
  </g>
  <g fill="#3d3938">
   <path d="m498.29 288.1c-0.44584 5.5967-1.8197 11.394-2.86 16.917-0.5644 2.9897-1.4197 6.4584-0.68141 9.486 1.4419 5.9176 7.807 5.9967 12.237 3.4529 0.81264-0.4664 1.5905-0.64347 2.2134-1.3976h-0.47429v-0.15798l2.2134-2.2134-0.79049 4.5849h8.8536l2.479-14.703 2.7383-15.81c-2.06-0.6087-4.8078-0.15799-6.9564-0.15799-0.61818 0-1.9019-0.24189-2.4126 0.1629-0.40475 0.32088-0.38419 1.113-0.45377 1.5762-0.19275 1.2664-0.47584 2.5327-0.70352 3.7944-0.84427 4.6876-1.0213 9.9824-3.3707 14.229-0.94383 1.7075-4.5438 4.871-5.69 1.581-0.62766-1.8023 0.23395-4.4995 0.58337-6.324 0.37304-1.9446 0.64664-3.9035 1.0118-5.8497 0.56285-3.0102 1.3012-6.1216 1.5494-9.1698h-9.486"/>
   <path d="m293.23 288.1-5.2173 30.671h9.486l3.0766-18.181 2.1407-12.49h-9.486"/>
   <path d="m221.46 288.1h-9.486c-0.0854 1.9509-0.66402 3.9272-0.98813 5.8496l-2.0616 12.332c-0.36046 2.1659-0.93279 4.4268-0.71777 6.6402 0.0964 0.99126 0.2925 2.0948 0.7067 3.0038 2.6403 5.788 9.935 3.6774 13.97 0.79053l-0.4743-0.15798 2.0553-2.3715-0.6324 4.5849h8.8536l1.698-10.118 1.728-10.435 1.1984-6.7983 0.27666-3.4782c-2.0695 0.49327-4.5185 0.15799-6.6402 0.15799-0.61027 0-2.0695-0.26873-2.5043 0.25285-0.7731 0.9312-0.73832 3.4639-0.93437 4.6481-0.75097 4.509-1.0197 9.7516-3.0308 13.913-0.8158 1.6869-2.06 3.6932-4.1232 3.9224-2.9312 0.3258-2.1312-3.5224-1.8577-5.1872 0.9486-5.7928 2.4901-11.714 2.9644-17.549"/>
   <path d="m531.33 290.16 0.47433 0.31635c-2.4996 1.2964-4.1074 4.6371-5.173 7.1145-2.5232 5.8639-2.8853 15.124 2.4853 19.552 2.2229 1.834 5.426 2.4237 8.2212 2.4237 7.5303 0 14.144-4.0774 15.494-12.016-2.1059-0.0427-4.2307-0.56284-6.324-0.79838-0.62608-0.0695-1.7106-0.46326-2.3051-0.20712-0.56916 0.24491-0.91064 1.5968-1.2427 2.1122-1.0197 1.5873-2.6577 3.056-4.6734 2.9833-2.2513-0.082-3.8165-2.3762-4.0647-4.4062-0.43793-3.5667 1.0577-8.7998 4.0647-10.942 2.966-2.1138 6.8995-0.56126 7.4307 3.0371l8.5374-0.47429c-0.0552-1.3059-0.40471-2.5486-0.76834-3.7944-2.7367-9.3863-15.306-8.9405-22.156-4.9011"/>
   <path d="m448.63 287.35c-0.93762 4e-3 -1.8573 0.0779-2.7217 0.20939-9.2868 1.4182-13.592 11.875-12.638 20.322 0.35263 3.1193 1.44 6.6323 3.8305 8.8125 3.2347 2.9485 7.7168 3.26 11.857 2.6466 8.7635-1.298 12.297-10.65 12.332-18.43 0.0189-4.0236-1.4182-8.7351-4.743-11.299-2.1296-1.6422-5.1039-2.2716-7.9167-2.2616zm-0.3829 7.9627c0.0782-2e-3 0.15685-2e-3 0.2366 0 2.4648 0.0616 3.6252 2.517 3.6363 4.6497 0.0189 3.7422-0.62445 12.001-6.022 11.677-2.2324-0.13455-3.361-2.6323-3.6693-4.5484-0.61943-3.8394 0.90281-11.657 5.8185-11.778z"/>
   <path d="m424.46 294.11 1.1067-6.0077h-8.8535l-3.8608 22.924-1.1984 7.7469h6.9564c0.57547 0 1.9398 0.25134 2.343-0.25285 0.80792-1.0103 0.72885-3.845 0.93755-5.1224 0.64978-3.973 1.0276-8.3176 2.7193-12.016 0.85689-1.8703 2.1865-3.6442 4.2766-4.1722 1.0593-0.26872 2.1154 0.0839 3.162 0.21959l3.3201-9.1698c-2.9169-1.1968-5.8686-1.0877-7.9808 1.581-1.0292 1.2996-1.6837 3.2031-2.928 4.2687"/>
   <path d="m346.36 292.85 0.79049-4.743h-8.8536c-1.3012 10.24-4.3983 20.381-5.2173 30.671h9.486c1.1383-6.1121 1.3881-13.073 3.8845-18.814 0.71145-1.6364 3.4371-5.4782 5.5493-3.4339 1.4719 1.4229 0.39683 4.09 0.20236 5.8054-0.61658 5.4497-2.566 10.953-2.6798 16.442h6.6402c0.6482 0 2.0363 0.26079 2.5707-0.1629 0.5486-0.43476 0.52331-1.8814 0.63082-2.5248 0.38576-2.3209 0.78259-4.6371 1.1857-6.9564 0.5407-3.1098 1.045-6.2054 1.5288-9.3279 0.38735-2.498 0.92963-5.086 0.26245-7.5888-1.328-4.9706-6.9564-5.8133-11.08-3.7517-2.0743 1.0371-3.4197 2.6719-4.9011 4.3841"/>
   <path d="m319.65 287.37c-0.93178-8e-3 -1.8655 0.0563-2.6963 0.17008-9.2488 1.2585-14.034 11.434-13.01 20.011 0.68774 5.7422 3.4165 10.509 9.38 11.823 1.5604 0.34318 3.4654 0.33676 5.0527 0.14703 9.2109-1.1004 13.333-9.5285 13.603-17.977 0.20553-6.4441-2.9786-12.575-9.6441-13.922-0.8237-0.16668-1.7537-0.24378-2.6855-0.25058zm-0.57404 7.9584c0.082 1e-3 0.16509 4e-3 0.24919 8e-3 2.3098 0.1406 3.4529 2.4047 3.4782 4.4663 0.0363 3.1556-0.18811 6.3556-1.7928 9.1698-0.87272 1.5304-2.3557 2.8442-4.215 2.6719-2.3019-0.21505-3.459-2.6973-3.6471-4.7272-0.36105-3.8518 0.75902-11.659 5.9275-11.59z"/>
   <path d="m245.01 290.16 0.4743 0.31635c-2.5723 1.3344-4.2798 4.8505-5.3121 7.4307-2.2023 5.5066-2.6972 14.227 1.992 18.641 2.392 2.2498 5.6568 3.0182 8.8536 3.0182 7.5366 0 14.142-4.0679 15.494-12.016-2.0411-0.0427-4.1438-0.48854-6.1659-0.76992-0.64979-0.09-1.845-0.50276-2.4632-0.23547-0.56916 0.24492-0.91065 1.5968-1.2427 2.1122-1.0529 1.6395-2.8727 3.2821-4.9896 2.9517-2.1549-0.33676-3.5699-2.4964-3.7675-4.5327-0.33834-3.4987 1.064-8.4647 3.9256-10.667 2.9454-2.2656 7.0449-0.7573 7.5888 2.9201l8.5374-0.4743c-0.0616-1.3802-0.38735-2.811-0.86006-4.1106-3.26-8.9832-15.092-8.6575-22.064-4.5849"/>
   <path d="m199.32 294.11h-0.1581l0.9486-6.0077h-8.8536l-1.1462 6.9564-2.5549 15.019-0.95334 5.8496-0.24665 3.0039c2.0695-0.49327 4.5185-0.15799 6.6402-0.15799 0.59919 0 2.0822 0.27024 2.5011-0.25285 0.81105-1.0134 0.65611-3.5493 0.89168-4.8062 0.73991-3.9572 1.1352-8.0662 2.5644-11.857 0.77469-2.0506 2.2561-4.0774 4.4774-4.6465 1.0561-0.27024 2.117 0.0854 3.162 0.21959 0.50908-2.2023 1.5778-4.3794 2.4031-6.4821 0.24978-0.63715 0.9976-1.7992 0.79208-2.4948-0.29881-1.0182-2.5422-0.99284-3.3533-0.98336-3.4687 0.0412-5.9098 3.747-7.1145 6.6402"/>
   <path d="m137.98 310.39c0.0528 6.3872 5.1122 9.1698 10.909 9.1698 6.047 0 11.652-1.1937 14.359-7.2726 1.2933-2.9043 1.0877-7.6156-1.2632-9.9318-1.1604-1.1415-2.8648-1.747-4.3999-2.1754-2.0858-0.58024-6.2587-0.51542-7.3401-2.7541-0.83682-1.7328 0.86701-3.211 2.439-3.5082 2.0132-0.37947 3.6557 0.75885 4.1106 2.7177l8.8536-1.2648c-0.79524-5.9082-5.3137-7.905-10.751-7.905-6.5216 0-12.774 3.0434-13.266 10.276-0.059 0.86638 0.0295 1.8371 0.20379 2.6877 1.1527 5.6283 6.893 5.4971 11.165 7.026 1.6477 0.58968 2.8507 2.3525 1.628 4.0141-1.3032 1.7707-4.7071 2.3003-6.2922 0.59762-0.57389-0.61659-0.70085-2.3667-1.5372-2.6213-0.7056-0.21355-1.92 0.17726-2.6521 0.26721-2.0387 0.24983-4.1145 0.58813-6.1659 0.67665"/>
   <path d="m573.86 310.39c0.0113 1.1304 0.1833 2.2545 0.56757 3.3201 2.6751 7.4307 11.725 6.0014 17.93 5.2173 0-0.51855 0.97545-0.60552 1.4229-0.81736 1.2221-0.57706 2.411-1.4956 3.3201-2.5027 2.2624-2.5059 3.0087-5.8718 2.6877-9.1697-0.42996-4.4189-4.5959-6.0094-8.3792-6.7461-1.7075-0.33184-4.46-0.4885-5.3485-2.2656-0.65295-1.3043 0.33826-2.743 1.5541-3.2679 2.0016-0.86166 4.8663 0.034 5.0592 2.4774l8.8536-1.2648c-0.79525-5.9003-5.3201-7.905-10.751-7.905-6.5279 0-12.77 3.0276-13.266 10.276-0.0601 0.88853 0.0378 1.8134 0.19427 2.6877 0.99288 5.5635 6.9738 5.5872 11.174 7.0386 1.6458 0.56757 2.7746 2.2134 1.6506 3.8703-1.2411 1.8276-4.7146 2.5391-6.3145 0.73833-0.55808-0.62766-0.69721-2.3367-1.5367-2.5849-0.77314-0.22904-1.8688 0.12322-2.6529 0.22148-2.0363 0.24983-4.1169 0.58814-6.1659 0.67665"/>
   <path d="m120.91 292.85 0.7905-4.743h-8.8536l-1.3559 7.905-3.8614 22.766h9.486c0.47067-3.7043 1.2961-7.3974 1.9826-11.067 0.49327-2.6371 0.83208-5.2473 1.8852-7.7469 0.68884-1.6348 3.4948-5.4687 5.5645-3.4339 1.4529 1.4276 0.39668 4.0948 0.20395 5.8054-0.61785 5.4813-2.4431 10.929-2.6798 16.442h6.6402c0.64884 0 2.037 0.26079 2.571-0.1629 0.53691-0.42527 0.53944-1.8893 0.65184-2.5248 0.4362-2.4679 0.889-4.9485 1.2468-7.4307 0.4509-3.1288 1.0724-6.2259 1.5517-9.3548 0.30735-2.0047 0.7943-4.2687 0.37929-6.2971-0.19132-0.93596-0.52948-1.8545-0.99303-2.6877-2.2635-4.0711-8.2863-3.3849-11.574-1.1004-1.4615 1.015-2.4877 2.3019-3.6363 3.6299"/>
   <path d="m93.631 287.42c-0.18433-2.6e-4 -0.36786 1e-3 -0.55026 4e-3 -10.114 0.13607-15.657 11.037-14.57 20.125 0.4577 3.8244 1.7431 7.8434 5.0836 10.155 2.5788 1.7834 5.6747 1.932 8.6955 1.8592 9.7272-0.23887 14.229-9.9809 14.229-18.496 0-4.2133-1.3582-8.9675-4.9011-11.603-2.2731-1.6912-5.2224-2.0387-7.9871-2.043zm-0.0068 7.9056c0.08141 1e-3 0.16369 4e-3 0.24703 8e-3 2.4072 0.14703 3.327 2.4142 3.4918 4.4663 0.24646 3.0687-0.25546 6.4504-1.8061 9.1698-0.87635 1.5367-2.3468 2.8395-4.2153 2.6719-2.2883-0.20712-3.3369-2.5866-3.6156-4.5691-0.54222-3.858 0.76966-11.81 5.8982-11.748z"/>
   <path d="m560.9 288.1h-3.4782l-1.2648 8.3792h3.3201c-0.73202 3.7706-1.4419 7.5777-1.9415 11.383-0.21959 1.6648-0.73674 3.377-0.49644 5.0592 0.34167 2.3873 1.3312 5.0323 3.7027 6.0726 3.0751 1.3486 6.6402 0.18481 9.8022-0.065l1.4229-8.3792c-1.2711 0.0265-2.9312 0.94068-4.1106 0.19918-1.4766-0.9312-0.96597-2.5786-0.74778-3.9936 0.52804-3.4118 1.4245-6.833 1.6964-10.276h5.0592l1.2648-8.3792h-4.743c0.0745-3.5904 0.99602-7.9018 1.8972-11.383-2.6182 0.83476-5.2837 3.1414-7.5888 4.6386-0.86321 0.56126-2.2481 1.064-2.8474 1.9257-0.81263 1.1668-0.7731 3.4434-0.94703 4.8189"/>
   <path d="m285.65 276.72c-2.3826 1.6079-4.8616 3.0734-7.2726 4.6386-0.87587 0.56916-2.2308 1.0656-2.8553 1.9256-0.83161 1.1415-0.76679 3.4545-0.93912 4.8189h-3.4782l-1.2648 8.3792 3.3201 0.15798c-0.52015 1.6458-0.67667 3.5114-0.96125 5.2173-0.81105 4.86-3.8671 13.959 1.9098 16.988 3.1525 1.6521 6.8283 0.22753 10.118 0.0869l1.4229-8.3793c-1.2126 0.0522-2.811 0.86166-3.9525 0.26571-1.6284-0.85059-1.1241-2.6228-0.88377-4.06 0.56442-3.358 1.5272-6.8789 1.6743-10.276h5.0592l1.2648-8.3793h-4.743l1.2774-8.0631 0.30353-3.3201"/>
   <path d="m169.44 288.1-1.4229 8.3792h3.4782c-0.74307 3.8292-1.3628 7.6804-1.9177 11.541-0.39684 2.762-0.9075 5.0718 0.24665 7.7469 1.6822 3.9019 5.573 4.0426 9.2599 3.6284 0.80631-0.09 2.9312-0.0302 3.4497-0.71301 0.42528-0.55967 0.43161-1.7597 0.54228-2.441 0.3067-1.8956 0.55651-3.8039 0.90907-5.6916-1.2774 0.0552-2.9169 0.91699-4.1074 0.18028-1.4387-0.89012-0.97232-2.6118-0.72726-3.9746 0.61026-3.3817 1.4023-6.8504 1.6727-10.276h5.0592c0.19922-2.5296 1.8197-6.1026 1.1067-8.5373l-4.5849 0.15798 1.8972-11.383-6.7983 4.1406-3.543 2.3035-1.1367 4.686-3.3833 0.25285"/>
   <path d="m487.29 276.17c-0.42841 2e-3 -0.82605 0.0566-1.0564 0.24268-0.67665 0.54702-0.74151 3.2396-0.89488 4.106-0.6387 3.641-0.61973 8.131-2.0679 11.541-2.86-6.5437-11.291-5.6094-15.007-0.69876-4.1849 5.5272-5.6995 14.409-3.8466 21.094 1.3992 5.0513 5.5382 8.6068 10.948 6.7128 1.9794-0.69408 3.0008-2.18 4.5849-3.3927l-0.15799 3.162 8.5374-0.15798 3.5668-20.869 3.7058-21.66h-6.7983c-0.36208 0-0.96348-0.083-1.5143-0.08zm-9.1633 19.076c1.9059-4e-3 3.1856 2.0969 3.4257 3.7703 0.45532 3.1715-0.079 7.1002-1.5764 9.9603-0.63715 1.2173-1.5415 2.6179-3.0292 2.8155-2.43 0.3239-3.6869-1.5381-3.9256-3.7642-0.34469-3.222 0.16932-6.8868 1.5955-9.8021 0.62922-1.2869 1.5871-2.7209 3.1206-2.9502 0.13267-0.0189 0.2623-0.0302 0.38937-0.0302z"/>
   <path d="m386.04 276.25-2.1168 12.49-5.1558 30.039h10.593c0.94069-5.0497 2.4237-10.526 2.5296-15.652 4.4252 0 9.9413 0.66565 13.913-1.728 5.0576-3.0466 6.7983-8.6323 6.7983-14.24 0-3.3169-0.77465-6.7447-3.4782-8.9375-2.3098-1.8751-5.7058-1.9713-8.5374-1.9713zm12.006 8.2882c1.2743-6.1e-4 2.5417 0.14702 3.4844 0.82628 2.8284 2.0379 0.7367 7.1111-1.5779 8.5973-1.8514 1.1905-4.3889 0.78588-6.4821 0.78588l1.7391-10.118c0.8501 0 1.8454-0.0903 2.8365-0.0911z"/>
   <path d="m294.03 284.31h6.6402l2.5707-0.1629 0.52647-2.0505 0.85532-5.8497h-6.6402l-2.5707 0.16286-0.52489 2.0506-0.8569 5.8497"/>
   <path d="m67.943 317.83v-0.15798h-0.4743v-0.15799c4.8734-1.785 8.0386-8.7239 9.0117-13.438l-9.8022-1.8972c-0.76315 2.3415-1.8488 4.988-3.7944 6.588-2.5492 2.0964-6.1173 1.1873-7.5918-1.6869-1.9263-3.7548-0.8697-8.9658 0.27507-12.806 0.94686-3.1778 2.605-6.8141 5.7357-8.3792 3.8241-1.913 7.5553 1.5873 7.1145 5.5335 2.1141 0.5723 5.2862-0.47905 7.4307-0.83002 0.53185-0.0869 1.9957-0.0302 2.209-0.64347 0.42323-1.2158-0.50212-3.5351-0.89153-4.6924-1.8673-5.5477-6.376-9.2298-12.226-9.6298-2.7283-0.18656-5.8454 0.1344-8.3731 1.2237-9.2989 4.0046-12.8 16.406-12.502 25.639 0.25595 7.9302 3.922 16.188 12.812 17.048 3.8783 0.37455 7.4304-0.50279 11.067-1.7122"/>
  </g>
 </g>
</svg>
